HIERARCHY
ROOT Hips
{
	OFFSET 0.000000 0.000000 0.000000
	CHANNELS 6 Xposition Yposition Zposition Xrotation Yrotation Zrotation
	JOINT LeftUpLeg_virtual
	{
		OFFSET 0.000000 0.000000 0.000000
		CHANNELS 3 Xrotation Yrotation Zrotation
		JOINT LeftUpLeg
		{
			OFFSET 11.394100 -6.187798 -0.413800
			CHANNELS 3 Xrotation Yrotation Zrotation
			JOINT LeftLeg
			{
				OFFSET 0.430247 -32.302673 3.732800
				CHANNELS 3 Xrotation Yrotation Zrotation
				JOINT LeftFoot
				{
					OFFSET -0.430247 -48.264931 -6.423300
					CHANNELS 3 Xrotation Yrotation Zrotation
					JOINT LeftToeBase
					{
						OFFSET 4.230900 -16.068199 23.438400
						CHANNELS 3 Xrotation Yrotation Zrotation
						JOINT LeftToe_End
						{
							OFFSET 4.510700 0.695400 19.974600
							CHANNELS 3 Xrotation Yrotation Zrotation
							End Site
							{
								OFFSET 0 0 0
							}
						}
					}
				}
			}
		}
	}
	JOINT RightUpLeg_virtual
	{
		OFFSET 0.000000 0.000000 0.000000
		CHANNELS 3 Xrotation Yrotation Zrotation
		JOINT RightUpLeg
		{
			OFFSET -11.333700 -6.187798 -0.413800
			CHANNELS 3 Xrotation Yrotation Zrotation
			JOINT RightLeg
			{
				OFFSET -0.430392 -32.302628 3.733000
				CHANNELS 3 Xrotation Yrotation Zrotation
				JOINT RightFoot
				{
					OFFSET 0.430392 -48.264973 -6.423500
					CHANNELS 3 Xrotation Yrotation Zrotation
					JOINT RightToeBase
					{
						OFFSET -4.230900 -16.068199 23.438400
						CHANNELS 3 Xrotation Yrotation Zrotation
						JOINT RightToe_End
						{
							OFFSET -4.510700 0.695400 19.974600
							CHANNELS 3 Xrotation Yrotation Zrotation
							End Site
							{
								OFFSET 0 0 0
							}
						}
					}
				}
			}
		}
	}
	JOINT Spine_virtual
	{
		OFFSET 0.000000 0.000000 0.000000
		CHANNELS 3 Xrotation Yrotation Zrotation
		JOINT Spine
		{
			OFFSET -0.002400 12.777504 0.315300
			CHANNELS 3 Xrotation Yrotation Zrotation
			JOINT Spine1
			{
				OFFSET -0.002067 5.816869 0.032633
				CHANNELS 3 Xrotation Yrotation Zrotation
				JOINT Spine1_split
				{
					OFFSET -0.002067 5.816869 0.032633
					CHANNELS 3 Xrotation Yrotation Zrotation
					JOINT Spine2
					{
						OFFSET -0.002067 5.816869 0.032633
						CHANNELS 3 Xrotation Yrotation Zrotation
						JOINT Neck_virtual
						{
							OFFSET 0.000000 0.000000 0.000000
							CHANNELS 3 Xrotation Yrotation Zrotation
							JOINT Neck
							{
								OFFSET -0.003700 21.199493 -0.826900
								CHANNELS 3 Xrotation Yrotation Zrotation
								JOINT Head
								{
									OFFSET 0.000000 20.442200 4.834800
									CHANNELS 3 Xrotation Yrotation Zrotation
									JOINT HeadTop_End
									{
										OFFSET 0.000000 34.668396 4.968400
										CHANNELS 3 Xrotation Yrotation Zrotation
										End Site
										{
											OFFSET 0 0 0
										}
									}
								}
							}
						}
						JOINT LeftShoulder_virtual
						{
							OFFSET 0.000000 0.000000 0.000000
							CHANNELS 3 Xrotation Yrotation Zrotation
							JOINT LeftShoulder
							{
								OFFSET 3.288150 8.794197 -1.372250
								CHANNELS 3 Xrotation Yrotation Zrotation
								JOINT LeftShoulder_split
								{
									OFFSET 3.288150 8.794197 -1.372250
									CHANNELS 3 Xrotation Yrotation Zrotation
									JOINT LeftArm
									{
										OFFSET 11.953299 -2.279007 -0.146200
										CHANNELS 3 Xrotation Yrotation Zrotation
										JOINT LeftForeArm
										{
											OFFSET 18.448900 0.000000 0.000000
											CHANNELS 3 Xrotation Yrotation Zrotation
											JOINT LeftHand
											{
												OFFSET 29.527798 0.000000 0.000000
												CHANNELS 3 Xrotation Yrotation Zrotation
												End Site
												{
													OFFSET 0 0 0
												}
											}
										}
									}
								}
							}
						}
						JOINT RightShoulder_virtual
						{
							OFFSET 0.000000 0.000000 0.000000
							CHANNELS 3 Xrotation Yrotation Zrotation
							JOINT RightShoulder
							{
								OFFSET -3.249400 8.794197 -1.372250
								CHANNELS 3 Xrotation Yrotation Zrotation
								JOINT RightShoulder_split
								{
									OFFSET -3.249400 8.794197 -1.372250
									CHANNELS 3 Xrotation Yrotation Zrotation
									JOINT RightArm
									{
										OFFSET -11.953299 -2.279007 -0.146200
										CHANNELS 3 Xrotation Yrotation Zrotation
										JOINT RightForeArm
										{
											OFFSET -18.448900 0.000000 0.000000
											CHANNELS 3 Xrotation Yrotation Zrotation
											JOINT RightHand
											{
												OFFSET -29.527802 0.000000 0.000000
												CHANNELS 3 Xrotation Yrotation Zrotation
												End Site
												{
													OFFSET 0 0 0
												}
											}
										}
									}
								}
							}
						}
					}
				}
			}
		}
	}
}
MOTION
Frames: 8
Frame Time: 0.03333333
-1.609774 94.062546 -6.176041 0.000000 0.000000 0.000000 -8.284583 -39.615336 -3.823466 -27.599734 6.350224 18.390414 35.733060 12.409917 0.670129 4.184597 5.916417 -15.933267 -2.347815 -0.808644 -5.253224 0.000000 0.000000 0.000000 -7.631706 -37.609952 -3.428038 -18.002145 -13.932912 -18.417267 37.953978 1.082499 1.595922 -13.167231 -7.053535 26.664538 0.481001 8.256007 -14.878396 0.000000 0.000000 0.000000 -12.806073 -39.896825 -6.917481 3.383712 6.483013 6.587450 2.816048 5.999913 -0.155842 0.170732 -0.704818 -0.054737 0.000000 0.000000 0.000000 2.348071 8.857156 -0.622123 -17.029507 6.164132 -21.563437 -116.925039 -68.569915 -145.113680 0.000000 0.000000 0.000000 -2.597751 6.235491 -1.559406 9.045483 -43.435536 -9.732529 2.671934 0.549124 -2.397946 13.790697 -7.308096 -25.090384 -101.247432 36.340093 -60.290278 0.000000 0.000000 0.000000 -3.932750 6.585209 1.932431 10.571340 7.001672 -9.450752 2.290823 -4.361495 0.163771 9.361584 18.212158 39.719855 -51.120582 39.640601 42.495050 0.000000 0.000000 0.000000 
-1.381371 94.140114 -4.437092 0.000000 0.000000 0.000000 -8.467008 -39.866284 -3.972984 -28.462474 7.269853 18.580608 35.936432 11.942973 0.573459 4.004203 5.532294 -16.486373 -2.261270 -0.815024 -4.808425 0.000000 0.000000 0.000000 -7.505201 -37.097561 -3.399743 -17.838721 -13.245911 -18.252858 37.810312 0.729791 1.515185 -12.618095 -7.718215 26.480150 -0.336487 7.966573 -14.357848 0.000000 0.000000 0.000000 -12.594967 -39.285903 -6.897450 3.687888 6.506987 6.551193 3.211536 5.981113 -0.150468 0.140635 -0.807841 -0.016951 0.000000 0.000000 0.000000 2.410460 9.051760 -0.812050 -16.792812 5.883945 -21.458042 -115.196249 -68.110715 -143.119961 0.000000 0.000000 0.000000 -2.224513 6.203977 -1.598162 9.272737 -43.500167 -8.855973 2.252260 1.416465 -2.309325 13.487141 -6.310099 -25.458429 -100.627531 36.567187 -60.074137 0.000000 0.000000 0.000000 -3.686509 6.743356 1.948514 10.269928 7.767035 -9.187345 2.684968 -3.892925 -0.510327 8.272227 18.704625 40.106376 -51.178758 40.052164 42.343386 0.000000 0.000000 0.000000 
-1.020639 93.952995 -2.486679 0.000000 0.000000 0.000000 -7.908596 -38.694470 -3.561586 -30.318175 8.119503 18.536362 37.453394 11.171003 -0.022194 3.100387 4.839682 -16.098838 -1.508340 -0.780954 -4.288746 0.000000 0.000000 0.000000 -7.075686 -35.373850 -3.018418 -17.791751 -11.742120 -17.835103 38.315223 0.444272 1.230349 -12.568162 -8.916978 25.245264 -0.570998 7.384836 -14.015418 0.000000 0.000000 0.000000 -11.462976 -37.658938 -6.198375 4.277643 6.381775 6.464830 3.378956 6.215727 -0.372065 0.107693 -0.904186 0.036261 0.000000 0.000000 0.000000 2.267586 9.447331 -1.078066 -16.278824 5.948907 -21.265919 -114.888413 -66.756001 -142.436341 0.000000 0.000000 0.000000 -2.084873 6.442358 -1.772455 9.771241 -42.650300 -7.574584 1.684543 1.991775 -2.270561 11.200324 -5.363634 -27.067908 -100.098396 36.923456 -59.334611 0.000000 0.000000 0.000000 -3.725458 7.090217 1.731585 10.154026 9.213043 -8.781006 3.446502 -3.580065 -0.821367 6.450438 19.788766 40.461211 -49.915723 39.989200 40.633659 0.000000 0.000000 0.000000 
-0.564789 93.555939 -0.643745 0.000000 0.000000 0.000000 -6.774559 -36.228963 -2.736592 -32.805132 8.599036 18.099721 39.997205 9.999015 -0.774739 1.902001 3.831568 -15.019661 -0.968995 -0.685026 -3.731862 0.000000 0.000000 0.000000 -6.250749 -32.652389 -2.299114 -18.237503 -9.509134 -17.228013 39.349099 0.607147 0.767602 -12.378277 -9.928911 23.711625 -0.709995 6.703572 -13.935826 0.000000 0.000000 0.000000 -9.700554 -35.173941 -5.049103 4.923482 6.097938 6.301893 3.335008 6.727934 -0.816680 0.111612 -1.014333 0.027859 0.000000 0.000000 0.000000 1.970623 10.091968 -1.445070 -15.405369 6.224334 -20.862832 -116.636094 -64.766012 -143.587829 0.000000 0.000000 0.000000 -2.117445 7.001056 -2.104994 10.370447 -41.006168 -6.184476 1.165881 2.324273 -2.287451 7.314257 -4.489482 -29.741191 -99.709998 37.406337 -58.005969 0.000000 0.000000 0.000000 -3.953754 7.688225 1.266089 10.157417 10.948651 -8.245311 4.662327 -3.850222 -0.818684 3.537358 21.055325 41.180672 -47.775117 39.523583 37.790381 0.000000 0.000000 0.000000 
-0.097274 93.057999 1.023018 0.000000 0.000000 0.000000 -5.415167 -32.786848 -1.764891 -35.386090 8.584590 17.073407 42.787146 8.587033 -1.374598 0.777277 2.645250 -13.316658 -1.476970 -0.502803 -3.263513 0.000000 0.000000 0.000000 -5.139370 -29.122656 -1.401276 -19.233526 -6.795098 -16.308714 40.670044 1.437720 0.077440 -11.824768 -10.289670 22.356041 -1.694469 6.097323 -14.171234 0.000000 0.000000 0.000000 -7.582604 -32.087460 -3.680216 5.437928 5.618879 6.053731 3.145370 7.565545 -1.440004 0.192044 -1.054725 0.020357 0.000000 0.000000 0.000000 1.589487 11.001026 -1.907592 -14.320236 6.565392 -20.120057 -120.331022 -62.514051 -146.573797 0.000000 0.000000 0.000000 -2.237961 7.903470 -2.594946 10.906846 -38.686717 -5.025310 0.753757 2.244069 -2.079536 2.620721 -3.554287 -33.180984 -99.512776 38.002066 -56.147198 0.000000 0.000000 0.000000 -4.220352 8.577556 0.599878 10.154466 12.557982 -7.588275 5.593062 -4.668198 -0.247638 -0.341882 22.315608 42.463027 -45.587903 39.173105 34.672284 0.000000 0.000000 0.000000 
0.264353 92.537582 2.688244 0.000000 0.000000 0.000000 -3.993611 -28.641784 -0.798125 -37.660608 8.210250 15.384501 45.084494 7.254889 -1.634207 -0.073608 1.568923 -11.010087 -2.703290 -0.228197 -3.324767 0.000000 0.000000 0.000000 -3.900906 -25.125788 -0.449211 -20.597866 -3.902787 -14.985778 42.136701 2.791200 -0.800180 -11.342169 -9.959854 20.982841 -3.623543 5.617654 -14.610647 0.000000 0.000000 0.000000 -5.517928 -28.684011 -2.329023 5.654274 4.965066 5.686286 2.883380 8.735268 -2.159350 0.249852 -1.000232 0.004521 0.000000 0.000000 0.000000 1.180948 12.187042 -2.412958 -13.160501 6.852676 -18.905989 -125.646616 -60.396952 -151.302064 0.000000 0.000000 0.000000 -2.323330 9.127900 -3.189636 11.296577 -35.822676 -4.232519 0.488313 1.528346 -1.873873 -2.214580 -2.498197 -36.939149 -99.622735 38.578111 -54.027978 0.000000 0.000000 0.000000 -4.343750 9.768553 -0.196972 10.063048 13.719468 -6.779262 5.994414 -5.420892 0.904916 -5.008594 23.031610 44.557815 -43.802208 39.395114 31.863304 0.000000 0.000000 0.000000 
0.460042 92.077133 4.506504 0.000000 0.000000 0.000000 -2.813684 -23.994323 0.023252 -39.461937 7.536004 13.149548 46.459828 6.136438 -1.554217 -0.461689 0.812663 -8.465646 -3.742421 0.186202 -4.382347 0.000000 0.000000 0.000000 -2.752812 -20.997731 0.459074 -22.180343 -1.126860 -13.254885 43.941954 4.300658 -1.742692 -11.327654 -9.152835 19.051658 -5.644999 5.157980 -15.001879 0.000000 0.000000 0.000000 -3.717825 -24.913851 -1.134904 5.542714 4.148039 5.130446 2.596794 10.150841 -2.866863 0.260455 -0.935298 -0.020405 0.000000 0.000000 0.000000 0.828745 13.595567 -2.914748 -12.242916 7.077114 -17.183479 -131.915419 -58.493631 -157.229247 0.000000 0.000000 0.000000 -2.296887 10.622901 -3.778616 11.566835 -32.479715 -3.724671 0.489616 0.323268 -1.763605 -6.883948 -1.318108 -40.683294 -100.088718 38.968029 -52.040058 0.000000 0.000000 0.000000 -4.255950 11.194648 -1.016500 9.825564 14.286049 -5.928880 6.411628 -5.801592 2.075907 -9.960604 22.972691 47.358428 -42.575667 40.486998 29.759281 0.000000 0.000000 0.000000 
0.486022 91.815430 6.176949 0.000000 0.000000 0.000000 -1.894834 -19.207749 0.696548 -40.798154 6.710208 10.697115 46.667411 5.149997 -1.224550 -0.452885 0.473936 -6.241500 -4.272239 0.779208 -6.249164 0.000000 0.000000 0.000000 -1.872374 -17.003321 1.231531 -23.868668 1.301923 -11.194487 46.344466 5.579695 -2.595267 -11.770260 -8.076262 16.429086 -7.001118 4.583017 -15.039361 0.000000 0.000000 0.000000 -2.240446 -20.923409 -0.165789 5.188354 3.158173 4.357387 2.354789 11.709382 -3.450832 0.180616 -0.879204 -0.028869 0.000000 0.000000 0.000000 0.674980 15.111698 -3.327227 -11.775577 7.284182 -14.944430 -138.008740 -56.898037 -163.382660 0.000000 0.000000 0.000000 -2.124087 12.297433 -4.232181 11.823209 -28.701616 -3.143621 0.589457 -1.093859 -1.796315 -11.217262 -0.046605 -44.145176 -100.919289 39.080717 -50.652908 0.000000 0.000000 0.000000 -3.943818 12.742657 -1.751936 9.480765 14.283098 -5.095188 6.861166 -5.930880 2.893892 -14.508512 22.378232 50.553232 -41.835366 42.380248 28.442690 0.000000 0.000000 0.000000 
